<?xml version="1.0" standalone="no"?>
<!DOCTYPE svg PUBLIC "-//W3C//DTD SVG 20010904//EN"
 "http://www.w3.org/TR/2001/REC-SVG-20010904/DTD/svg10.dtd">
<svg version="1.0" xmlns="http://www.w3.org/2000/svg"
 width="200.000000pt" height="200.000000pt" viewBox="0 0 200.000000 200.000000"
 preserveAspectRatio="xMidYMid meet">

<g transform="translate(0.000000,200.000000) scale(0.100000,-0.100000)"
fill="#000000" stroke="none">
<path d="M752 1550 c-167 -45 -297 -141 -359 -267 -24 -51 -28 -69 -28 -148 0
-69 4 -98 19 -125 36 -68 88 -121 149 -153 60 -31 66 -32 182 -32 116 0 122 1
183 33 84 44 146 108 185 190 27 58 32 80 35 170 4 96 3 102 -16 102 -17 0
-20 -9 -26 -62 -20 -176 -71 -270 -180 -335 -54 -31 -71 -36 -147 -41 -109 -6
-175 14 -230 69 -60 60 -74 93 -74 180 0 65 5 85 33 141 77 156 237 234 477
232 102 -1 130 -5 187 -26 87 -33 168 -81 232 -140 l51 -46 -65 -69 c-108
-113 -154 -172 -240 -308 -45 -71 -111 -170 -147 -218 -63 -85 -166 -187 -188
-187 -6 0 -48 16 -94 35 -135 57 -285 59 -355 4 -20 -16 -26 -29 -26 -59 0
-78 94 -116 263 -107 56 3 132 13 168 22 64 16 68 16 135 -5 97 -30 231 -37
314 -15 182 47 341 201 407 394 43 126 27 303 -38 432 -16 32 -26 64 -23 72 2
7 23 24 45 38 74 45 71 42 56 63 -13 18 -16 18 -58 2 -24 -9 -55 -25 -68 -35
-23 -18 -24 -18 -68 25 -63 62 -181 132 -271 162 -108 35 -312 41 -420 12z
m763 -468 c21 -77 19 -174 -5 -266 -73 -285 -313 -436 -583 -365 l-37 10 72
49 c84 56 197 169 255 255 22 33 70 118 107 189 37 71 86 156 108 189 l42 61
13 -32 c8 -19 20 -59 28 -90z m-868 -588 l58 -27 -55 -14 c-62 -16 -204 -12
-238 6 -31 16 -28 47 6 60 45 18 163 5 229 -25z"/>
</g>
</svg>
